<svg width="30" height="30" viewBox="0 0 30 30" fill="none" xmlns="http://www.w3.org/2000/svg">
<path d="M6.55671e-07 15C4.81774e-07 11.0217 1.58035 7.20648 4.39347 4.39347C7.20638 1.58035 11.0218 8.29563e-07 15 6.55671e-07C18.9782 4.81779e-07 22.7935 1.58035 25.6065 4.39347C28.4197 7.20638 30 11.0218 30 15C30 18.9782 28.4197 22.7935 25.6065 25.6065C22.7936 28.4197 18.9782 30 15 30C11.0232 29.9956 7.21024 28.414 4.39829 25.6019C1.58624 22.7899 0.00461089 18.9768 0.000218093 15.0002L6.55671e-07 15ZM26.4282 15C26.4282 11.6849 25.4251 9.26319 23.081 6.91892C20.7368 4.57476 18.3149 3.57169 14.9999 3.57169C11.6849 3.57169 9.26309 4.57476 6.91882 6.91892C4.57466 9.26308 3.57158 11.685 3.57158 15C3.57158 18.315 4.57466 20.7368 6.91882 23.0811C9.26298 25.4252 11.6849 26.4283 14.9999 26.4283C18.314 26.4248 20.7335 25.4204 23.0772 23.0771C25.4205 20.7336 26.4247 18.3144 26.4282 15Z" fill="#EB5757"/>
</svg>
