<svg width="30" height="30" viewBox="0 0 30 30" fill="none" xmlns="http://www.w3.org/2000/svg">
<path fill-rule="evenodd" clip-rule="evenodd" d="M25.6065 25.6065C28.4197 22.7935 30 18.9783 30 15C29.9956 11.0234 28.4138 7.21013 25.6017 4.39808C22.7898 1.58597 18.9768 0.00439452 15 0C11.0218 0 7.20638 1.58035 4.39347 4.39347C1.58034 7.20649 0 11.0218 0 15C0 18.9782 1.58035 22.7936 4.39347 25.6065C7.20648 28.4197 11.0218 30 15 30C18.9782 30 22.7936 28.4197 25.6065 25.6065ZM15 3.57169L15 26.4283C18.315 26.4283 20.7369 25.4252 23.0812 23.0811C25.4253 20.7369 26.4284 18.315 26.4284 15C26.4284 11.685 25.4253 9.26319 23.0812 6.91892C20.737 4.57476 18.315 3.57169 15 3.57169Z" fill="#F2C94C"/>
</svg>
